<?xml version="1.0"?>
<svg xmlns:rdf="http://www.w3.org/1999/02/22-rdf-syntax-ns#" xmlns="http://www.w3.org/2000/svg" xmlns:cc="http://creativecommons.org/ns#" xmlns:dc="http://purl.org/dc/elements/1.1/" xmlns:svg="http://www.w3.org/2000/svg" id="svg6624" viewBox="0 0 634.66 585.83" version="1.1">
  <g id="layer1" stroke="#000" stroke-width="2.0716px" transform="translate(-82.714 -150.54)">
    <path id="path6726" d="m83.75 624.36v9.6183l5.919 11.838 16.277 22.936 21.456 18.497 19.977 13.318 11.838 4.4392 39.213 5.1791 338.86 25.156 179.05-482.4-18.497 0.7399-8.8785-13.318-10.358-16.277-3.6994-23.676-2.2196-15.537 8.1386-32.554-5.1791-0.73987-319.63 31.815h-7.3987l-5.1791-2.9595-253.04 432.83-6.6589 11.098z" fill="#333"/>
    <path id="path6728" d="m94.108 628.8 5.1791 12.578 14.058 21.456 19.977 17.017 17.017 11.098 11.098 5.919 36.994 1.4797 329.24 22.196 176.09-463.9-7.3987-3.6994-19.237-28.115-4.4392-45.132-181.27 465.38-19.977 2.2196-377.34-18.497z" fill="#fff"/>
    <path id="path6730" d="m100.03 628.8 252.3-444.66" fill="none"/>
    <path id="path6732" d="m473.66 648.77-1.4797 17.757 5.919 19.237 25.156 22.196 17.757 11.838" fill="none"/>
  </g>
  <metadata>
    <rdf:RDF>
      <cc:Work>
        <dc:format>image/svg+xml</dc:format>
        <dc:type rdf:resource="http://purl.org/dc/dcmitype/StillImage"/>
        <cc:license rdf:resource="http://creativecommons.org/licenses/publicdomain/"/>
        <dc:publisher>
          <cc:Agent rdf:about="http://openclipart.org/">
            <dc:title>Openclipart</dc:title>
          </cc:Agent>
        </dc:publisher>
        <dc:title>Book</dc:title>
        <dc:date>2010-08-08T01:11:16</dc:date>
        <dc:description>A slightly sketchy, greyscale book</dc:description>
        <dc:source>http://openclipart.org/detail/78469/book-by-gingercoons</dc:source>
        <dc:creator>
          <cc:Agent>
            <dc:title>gingercoons</dc:title>
          </cc:Agent>
        </dc:creator>
        <dc:subject>
          <rdf:Bag>
            <rdf:li>black and white</rdf:li>
            <rdf:li>book</rdf:li>
            <rdf:li>clip art</rdf:li>
            <rdf:li>clipart</rdf:li>
            <rdf:li>closed book</rdf:li>
            <rdf:li>greyscale</rdf:li>
          </rdf:Bag>
        </dc:subject>
      </cc:Work>
      <cc:License rdf:about="http://creativecommons.org/licenses/publicdomain/">
        <cc:permits rdf:resource="http://creativecommons.org/ns#Reproduction"/>
        <cc:permits rdf:resource="http://creativecommons.org/ns#Distribution"/>
        <cc:permits rdf:resource="http://creativecommons.org/ns#DerivativeWorks"/>
      </cc:License>
    </rdf:RDF>
  </metadata>
</svg>
